<?xml version="1.0" encoding="UTF-8"?>
<svg version="1.1" xmlns="http://www.w3.org/2000/svg" width="64" height="64">
<path d="M0 0 C7.59 0 15.18 0 23 0 C23 21.12 23 42.24 23 64 C9.14 64 -4.72 64 -19 64 C-19 63.34 -19 62.68 -19 62 C-20.32 61.34 -21.64 60.68 -23 60 C-22.67 57.03 -22.34 54.06 -22 51 C-22.969375 50.731875 -23.93875 50.46375 -24.9375 50.1875 C-25.948125 49.795625 -26.95875 49.40375 -28 49 C-29 46 -29 46 -28.00390625 43.73828125 C-27.52824219 42.93777344 -27.05257813 42.13726562 -26.5625 41.3125 C-26.08941406 40.50425781 -25.61632813 39.69601563 -25.12890625 38.86328125 C-24.75636719 38.24839844 -24.38382813 37.63351563 -24 37 C-24.99 36.34 -25.98 35.68 -27 35 C-27.99 35.66 -28.98 36.32 -30 37 C-30.598125 36.505 -31.19625 36.01 -31.8125 35.5 C-33.97029994 33.71723582 -33.97029994 33.71723582 -37 34 C-36.86980469 33.43152344 -36.73960938 32.86304688 -36.60546875 32.27734375 C-35.6819891 27.4954693 -35.6819891 27.4954693 -37.08203125 22.984375 C-38.46331699 21.18464513 -38.46331699 21.18464513 -39.96875 19.60546875 C-41 18 -41 18 -40.98828125 16.1640625 C-39.51473971 12.93741424 -37.16809517 10.65525897 -34.6875 8.1875 C-34.20087891 7.67251953 -33.71425781 7.15753906 -33.21289062 6.62695312 C-31.76171875 5.16796875 -31.76171875 5.16796875 -29 3 C-25.80248171 3.06292075 -24.84176666 4.12227122 -22.25 6.125 C-17.87565193 8.64866235 -15.84882397 8.00320496 -11 7 C-10.71125 7.763125 -10.4225 8.52625 -10.125 9.3125 C-9.03730987 12.15029308 -9.03730987 12.15029308 -7 15 C-7.66 15.99 -8.32 16.98 -9 18 C-8.01 18.66 -7.02 19.32 -6 20 C-3.38552991 19.11870348 -3.38552991 19.11870348 -1 17 C-0.20754582 14.11827896 -0.21063318 11.28831903 -0.1875 8.3125 C-0.125625 5.569375 -0.06375 2.82625 0 0 Z " fill="#130F0C" transform="translate(41,0)"/>
<path d="M0 0 C6.93 0 13.86 0 21 0 C21 21.12 21 42.24 21 64 C16.05 64 11.1 64 6 64 C6 58.39 6 52.78 6 47 C4.02 47 2.04 47 0 47 C0 31.49 0 15.98 0 0 Z " fill="#9968C7" transform="translate(43,0)"/>
<path d="M0 0 C0.66 0 1.32 0 2 0 C2 15.51 2 31.02 2 47 C3.98 47 5.96 47 8 47 C8 52.61 8 58.22 8 64 C-0.91 64 -9.82 64 -19 64 C-19 63.34 -19 62.68 -19 62 C-20.32 61.34 -21.64 60.68 -23 60 C-22.67 57.03 -22.34 54.06 -22 51 C-22.969375 50.731875 -23.93875 50.46375 -24.9375 50.1875 C-25.948125 49.795625 -26.95875 49.40375 -28 49 C-28.495 47.515 -28.495 47.515 -29 46 C-27.59554165 43.7363436 -25.8032087 41.9791315 -24 40 C-23 43 -23 43 -23.9375 45.1875 C-24.288125 45.785625 -24.63875 46.38375 -25 47 C-23.02 47.66 -21.04 48.32 -19 49 C-18.13375 47.9790625 -18.13375 47.9790625 -17.25 46.9375 C-15 45 -15 45 -12.8125 45.0625 C-11 46 -11 46 -10 49 C-11.32 48.67 -12.64 48.34 -14 48 C-14.804375 48.94875 -15.60875 49.8975 -16.4375 50.875 C-16.88996094 51.40867188 -17.34242187 51.94234375 -17.80859375 52.4921875 C-19.0878152 54.00594079 -19.0878152 54.00594079 -20 56 C-19.27554687 55.94199219 -18.55109375 55.88398437 -17.8046875 55.82421875 C-8.92495103 55.40983105 -8.92495103 55.40983105 -5.3125 58.5 C-4.549375 59.325 -3.78625 60.15 -3 61 C-3 58.36 -3 55.72 -3 53 C-4.65 53 -6.3 53 -8 53 C-8.33 52.01 -8.66 51.02 -9 50 C-6.03 50.495 -6.03 50.495 -3 51 C-3 49.02 -3 47.04 -3 45 C-2.01 45 -1.02 45 0 45 C0 43.68 0 42.36 0 41 C-1.32 40.67 -2.64 40.34 -4 40 C-4.33 40.99 -4.66 41.98 -5 43 C-5.33 42.01 -5.66 41.02 -6 40 C-6.66 39.34 -7.32 38.68 -8 38 C-7.34 38 -6.68 38 -6 38 C-6 37.01 -6 36.02 -6 35 C-6.99 35 -7.98 35 -9 35 C-9.33 35.99 -9.66 36.98 -10 38 C-10.33 37.01 -10.66 36.02 -11 35 C-9.68 34.01 -8.36 33.02 -7 32 C-6.01 32.495 -6.01 32.495 -5 33 C-5 34.65 -5 36.3 -5 38 C-4.01 38 -3.02 38 -2 38 C-0.86519473 34.39006828 -0.89984233 31.0157673 -0.9375 27.25 C-0.94652344 26.07953125 -0.95554688 24.9090625 -0.96484375 23.703125 C-0.97644531 22.81109375 -0.98804688 21.9190625 -1 21 C-3.42999536 23.27364177 -4.42805835 24.68273845 -5 28 C-5.350625 27.319375 -5.70125 26.63875 -6.0625 25.9375 C-8.58283826 22.116342 -11.69417202 19.14280085 -15 16 C-14.34 15.67 -13.68 15.34 -13 15 C-12.34 15.33 -11.68 15.66 -11 16 C-11.33 14.68 -11.66 13.36 -12 12 C-12.66 12 -13.32 12 -14 12 C-14 11.34 -14 10.68 -14 10 C-18.69119055 12.9074145 -22.41846881 16.16831829 -26.25 20.125 C-26.77851563 20.66253906 -27.30703125 21.20007813 -27.8515625 21.75390625 C-29.2383721 23.1653546 -30.61953943 24.58234139 -32 26 C-32.66 26.66 -33.32 27.32 -34 28 C-35.20280161 26.42825925 -36.38681275 24.84212442 -37.5625 23.25 C-38.55443359 21.92742188 -38.55443359 21.92742188 -39.56640625 20.578125 C-41 18 -41 18 -41.046875 16.03515625 C-39.45182341 12.93432834 -37.13354626 10.62088884 -34.6875 8.1875 C-34.20087891 7.67251953 -33.71425781 7.15753906 -33.21289062 6.62695312 C-31.76171875 5.16796875 -31.76171875 5.16796875 -29 3 C-25.80248171 3.06292075 -24.84176666 4.12227122 -22.25 6.125 C-17.87565193 8.64866235 -15.84882397 8.00320496 -11 7 C-10.71125 7.763125 -10.4225 8.52625 -10.125 9.3125 C-9.03730987 12.15029308 -9.03730987 12.15029308 -7 15 C-7.66 15.99 -8.32 16.98 -9 18 C-8.01 18.66 -7.02 19.32 -6 20 C-3.38552991 19.11870348 -3.38552991 19.11870348 -1 17 C-0.2087929 14.1228139 -0.20943745 11.28380618 -0.1875 8.3125 C-0.16236328 7.51521484 -0.13722656 6.71792969 -0.11132812 5.89648438 C-0.05249685 3.9315198 -0.02337596 1.96570609 0 0 Z " fill="#030404" transform="translate(41,0)"/>
<path d="M0 0 C1 3 1 3 0.0625 5.1875 C-0.4634375 6.0846875 -0.4634375 6.0846875 -1 7 C0.98 7.66 2.96 8.32 5 9 C5.5775 8.319375 6.155 7.63875 6.75 6.9375 C9 5 9 5 11.1875 5.0625 C13 6 13 6 14 9 C12.68 8.67 11.36 8.34 10 8 C9.195625 8.94875 8.39125 9.8975 7.5625 10.875 C6.88380859 11.67550781 6.88380859 11.67550781 6.19140625 12.4921875 C4.9121848 14.00594079 4.9121848 14.00594079 4 16 C5.08667969 15.91298828 5.08667969 15.91298828 6.1953125 15.82421875 C15.07504897 15.40983105 15.07504897 15.40983105 18.6875 18.5 C19.450625 19.325 20.21375 20.15 21 21 C20.98839844 20.30132812 20.97679688 19.60265625 20.96484375 18.8828125 C20.95582031 17.97273438 20.94679688 17.06265625 20.9375 16.125 C20.92589844 15.22007813 20.91429688 14.31515625 20.90234375 13.3828125 C21 11 21 11 22 9 C24.64 9 27.28 9 30 9 C31.38226016 11.76452033 31.09525387 14.0461363 31.0625 17.125 C31.05347656 18.22070312 31.04445312 19.31640625 31.03515625 20.4453125 C31.02355469 21.28835937 31.01195312 22.13140625 31 23 C25.51730931 24.15664737 20.19660726 24.11416255 14.625 24.0625 C13.69816406 24.05798828 12.77132813 24.05347656 11.81640625 24.04882812 C9.54420291 24.03711574 7.27213612 24.02071372 5 24 C5 23.34 5 22.68 5 22 C3.68 21.34 2.36 20.68 1 20 C1.495 15.545 1.495 15.545 2 11 C1.030625 10.731875 0.06125 10.46375 -0.9375 10.1875 C-1.948125 9.795625 -2.95875 9.40375 -4 9 C-4.33 8.01 -4.66 7.02 -5 6 C-3.59554165 3.7363436 -1.8032087 1.9791315 0 0 Z M28 11 C28 11.66 28 12.32 28 13 C28.66 13 29.32 13 30 13 C30 12.34 30 11.68 30 11 C29.34 11 28.68 11 28 11 Z " fill="#0C0C0C" transform="translate(17,40)"/>
<path d="M0 0 C4.17285096 0.41383646 6.97271972 1.52129429 10.71875 3.375 C12.43384766 4.2103125 12.43384766 4.2103125 14.18359375 5.0625 C15.46943359 5.7121875 15.46943359 5.7121875 16.78125 6.375 C16.45125 8.025 16.12125 9.675 15.78125 11.375 C12.81125 10.88 12.81125 10.88 9.78125 10.375 C10.11125 11.035 10.44125 11.695 10.78125 12.375 C13.30858235 13.03055119 13.30858235 13.03055119 15.78125 13.375 C15.78125 16.015 15.78125 18.655 15.78125 21.375 C13.31324953 20.22326645 11.73341435 19.32716435 9.78125 17.375 C7.11882179 16.91209779 7.11882179 16.91209779 4.15625 16.75 C3.15335938 16.67523438 2.15046875 16.60046875 1.1171875 16.5234375 C0.34632812 16.47445312 -0.42453125 16.42546875 -1.21875 16.375 C0.33476689 11.9975669 1.96881847 10.08383293 5.78125 7.375 C6.77125 8.035 7.76125 8.695 8.78125 9.375 C8.12125 8.385 7.46125 7.395 6.78125 6.375 C3.51170798 6.93871414 1.95549117 7.87462266 -0.21875 10.375 C-2.23920442 9.77316251 -4.23986039 9.10193904 -6.21875 8.375 C-6.54875 7.715 -6.87875 7.055 -7.21875 6.375 C-4.15027455 0.48352713 -4.15027455 0.48352713 0 0 Z " fill="#8695A6" transform="translate(22.21875,39.625)"/>
<path d="M0 0 C3.83776322 1.56353316 6.34999338 3.83471431 9 7 C9.40234375 9.3671875 9.40234375 9.3671875 9 12 C7.20703125 14.45703125 7.20703125 14.45703125 4.8125 16.8125 C4.03519531 17.60269531 3.25789063 18.39289062 2.45703125 19.20703125 C0 21 0 21 -2.53125 21.51171875 C-5.81612091 20.8308357 -7.0567599 19.44690451 -9.3125 17 C-10.00988281 16.2575 -10.70726562 15.515 -11.42578125 14.75 C-12.20501953 13.88375 -12.20501953 13.88375 -13 13 C-10.86651808 11.35468767 -8.91766636 9.95883318 -6.5 8.75 C-3.05644365 6.33951056 -1.89861287 3.72690675 0 0 Z " fill="#DFC49A" transform="translate(26,17)"/>
<path d="M0 0 C0.05397335 2.4377963 0.09365616 4.87439685 0.125 7.3125 C0.15013672 8.34793945 0.15013672 8.34793945 0.17578125 9.40429688 C0.21217794 13.17135396 0.14378864 14.78431704 -2 18 C-2.99 18 -3.98 18 -5 18 C-5 16.35 -5 14.7 -5 13 C-6.32 13.33 -7.64 13.66 -9 14 C-9 14.33 -9 14.66 -9 15 C-8.01 15 -7.02 15 -6 15 C-5.67 16.65 -5.34 18.3 -5 20 C-3.35 20.33 -1.7 20.66 0 21 C0 22.32 0 23.64 0 25 C-3.55293493 26.14947895 -4.79976669 26.0868937 -8.3125 24.5625 C-9.199375 24.046875 -10.08625 23.53125 -11 23 C-10.67 22.01 -10.34 21.02 -10 20 C-11.32 20 -12.64 20 -14 20 C-14.33 19.01 -14.66 18.02 -15 17 C-14.45730469 16.50371094 -13.91460938 16.00742187 -13.35546875 15.49609375 C-8.80737527 11.17745364 -6.21349755 7.82499354 -4 2 C-1 0 -1 0 0 0 Z " fill="#3B656C" transform="translate(41,20)"/>
<path d="M0 0 C0.33 0 0.66 0 1 0 C1.6331684 9.01134307 2.1723784 17.95971078 2 27 C3.98 27 5.96 27 8 27 C8 32.61 8 38.22 8 44 C5.69 44 3.38 44 1 44 C1 43.67 1 43.34 1 43 C2.98 43 4.96 43 7 43 C6.67 38.38 6.34 33.76 6 29 C3.36 29 0.72 29 -2 29 C-2.33 29.66 -2.66 30.32 -3 31 C-3 29.02 -3 27.04 -3 25 C-2.01 25 -1.02 25 0 25 C0 23.68 0 22.36 0 21 C-1.32 20.67 -2.64 20.34 -4 20 C-4.33 20.99 -4.66 21.98 -5 23 C-5.33 22.01 -5.66 21.02 -6 20 C-6.66 19.34 -7.32 18.68 -8 18 C-7.34 18 -6.68 18 -6 18 C-6 17.01 -6 16.02 -6 15 C-6.99 15 -7.98 15 -9 15 C-9.33 15.99 -9.66 16.98 -10 18 C-10.33 17.01 -10.66 16.02 -11 15 C-9.68 14.01 -8.36 13.02 -7 12 C-6.34 12.33 -5.68 12.66 -5 13 C-5 14.65 -5 16.3 -5 18 C-4.01 18 -3.02 18 -2 18 C-0.8838344 14.28570102 -0.6875805 10.60838492 -0.4375 6.75 C-0.35371094 5.48671875 -0.26992188 4.2234375 -0.18359375 2.921875 C-0.12300781 1.95765625 -0.06242187 0.9934375 0 0 Z M-9 30 C-6.03 30.495 -6.03 30.495 -3 31 C-3 31.66 -3 32.32 -3 33 C-4.65 33 -6.3 33 -8 33 C-8.33 32.01 -8.66 31.02 -9 30 Z M4 31 C4.66 31 5.32 31 6 31 C6 31.66 6 32.32 6 33 C5.34 33 4.68 33 4 33 C4 32.34 4 31.68 4 31 Z " fill="#1B1A20" transform="translate(41,20)"/>
<path d="M0 0 C2.10453901 0.94726597 3.25718805 2.1735304 4.83984375 3.828125 C5.49984375 3.828125 6.15984375 3.828125 6.83984375 3.828125 C5.25422737 7.68405574 2.77474421 10.16028791 -0.16015625 13.078125 C-1.04703125 13.97015625 -1.93390625 14.8621875 -2.84765625 15.78125 C-5.16015625 17.828125 -5.16015625 17.828125 -7.16015625 17.828125 C-5.49264477 13.88673422 -2.93304976 11.0388438 -0.16015625 7.828125 C-3.06818086 10.04740694 -5.11328387 11.75781643 -7.16015625 14.828125 C-7.82015625 14.828125 -8.48015625 14.828125 -9.16015625 14.828125 C-11.16015625 11.828125 -11.16015625 11.828125 -11.0234375 9.91015625 C-9.90674795 7.2169638 -8.39089127 5.58918633 -6.34765625 3.515625 C-5.31705078 2.43861328 -5.31705078 2.43861328 -4.265625 1.33984375 C-2.16015625 -0.171875 -2.16015625 -0.171875 0 0 Z " fill="#B4BDC6" transform="translate(14.16015625,6.171875)"/>
<path d="M0 0 C-1.68889071 6.58667377 -4.77884355 12.86573683 -10.546875 16.6875 C-17.05894886 20 -17.05894886 20 -20 20 C-18.5216209 14.62034272 -14.88494236 11.51012494 -11 7.75 C-10.03707031 6.79480469 -10.03707031 6.79480469 -9.0546875 5.8203125 C-3.13530585 0 -3.13530585 0 0 0 Z " fill="#8999AB" transform="translate(27,10)"/>
<path d="M0 0 C2.64 0 5.28 0 8 0 C9.38226016 2.76452033 9.09525387 5.0461363 9.0625 8.125 C9.05347656 9.22070312 9.04445313 10.31640625 9.03515625 11.4453125 C9.02355469 12.28835937 9.01195312 13.13140625 9 14 C4.545 14.495 4.545 14.495 0 15 C-0.33 14.34 -0.66 13.68 -1 13 C-0.67 12.34 -0.34 11.68 0 11 C3.0625 10.375 3.0625 10.375 6 10 C3.69 10 1.38 10 -1 10 C-1.125 2.25 -1.125 2.25 0 0 Z M6 2 C6 2.66 6 3.32 6 4 C6.66 4 7.32 4 8 4 C8 3.34 8 2.68 8 2 C7.34 2 6.68 2 6 2 Z " fill="#554534" transform="translate(39,49)"/>
<path d="M0 0 C2.4375 0.8125 2.4375 0.8125 5 2 C5.33 2.99 5.66 3.98 6 5 C7.65 5.33 9.3 5.66 11 6 C11 8.64 11 11.28 11 14 C8.53199953 12.84826645 6.95216435 11.95216435 5 10 C2.33757179 9.53709779 2.33757179 9.53709779 -0.625 9.375 C-1.62789062 9.30023438 -2.63078125 9.22546875 -3.6640625 9.1484375 C-4.43492188 9.09945312 -5.20578125 9.05046875 -6 9 C-4.56171454 5.09330571 -3.11429212 2.80286291 0 0 Z " fill="#BAC2CB" transform="translate(27,47)"/>
<path d="M0 0 C0.05397335 2.4377963 0.09365616 4.87439685 0.125 7.3125 C0.15013672 8.34793945 0.15013672 8.34793945 0.17578125 9.40429688 C0.21217794 13.17135396 0.14378864 14.78431704 -2 18 C-2.99 18 -3.98 18 -5 18 C-5 16.35 -5 14.7 -5 13 C-5.66 13 -6.32 13 -7 13 C-8 10 -8 10 -7.375 7.625 C-6.05570636 5.10634851 -3.22575516 0 0 0 Z " fill="#6F7173" transform="translate(41,20)"/>
<path d="M0 0 C9.73004484 -0.92017937 9.73004484 -0.92017937 12.84375 1.3359375 C14.1875 3 14.1875 3 16 6 C11.05 6 6.1 6 1 6 C0.67 4.02 0.34 2.04 0 0 Z " fill="#909EB0" transform="translate(21,58)"/>
<path d="M0 0 C0.66 0.33 1.32 0.66 2 1 C-2.62 5.62 -7.24 10.24 -12 15 C-9.36 13.68 -6.72 12.36 -4 11 C-3.34 11.33 -2.68 11.66 -2 12 C-6.53669968 15.01679014 -10.68972746 17.53967505 -16 19 C-14.52770326 13.57738597 -10.79625199 10.45733731 -6.875 6.6875 C-6.21628906 6.04232422 -5.55757812 5.39714844 -4.87890625 4.73242188 C-3.25919856 3.14792522 -1.63289995 1.57087901 0 0 Z " fill="#738190" transform="translate(23,11)"/>
<path d="M0 0 C1.32 0.66 2.64 1.32 4 2 C2.41438362 5.85593074 -0.06509954 8.33216291 -3 11.25 C-3.886875 12.14203125 -4.77375 13.0340625 -5.6875 13.953125 C-8 16 -8 16 -10 16 C-8.80465088 13.17462936 -7.43875959 11.32924926 -5.4375 8.9375 C-2.86462201 6.19794312 -2.86462201 6.19794312 -2 3 C-1.34 3 -0.68 3 0 3 C0 2.01 0 1.02 0 0 Z " fill="#4D8087" transform="translate(17,8)"/>
<path d="M0 0 C0.66 0.33 1.32 0.66 2 1 C1.01 2.485 1.01 2.485 0 4 C0.99 4 1.98 4 3 4 C3 5.65 3 7.3 3 9 C0.36 9 -2.28 9 -5 9 C-5.33 8.01 -5.66 7.02 -6 6 C-4.02 4.02 -2.04 2.04 0 0 Z " fill="#524D46" transform="translate(32,31)"/>
<path d="M0 0 C0.99 0 1.98 0 3 0 C3.33 1.32 3.66 2.64 4 4 C3.01 4.33 2.02 4.66 1 5 C-0.56747629 7.05888677 -0.56747629 7.05888677 -2 9.5 C-4.66666667 13.88888889 -4.66666667 13.88888889 -8 15 C-6.38102741 11.69918209 -4.64075691 8.47442567 -2.875 5.25 C-2.33617187 4.26515625 -1.79734375 3.2803125 -1.2421875 2.265625 C-0.83226562 1.51796875 -0.42234375 0.7703125 0 0 Z " fill="#342920" transform="translate(26,12)"/>
<path d="M0 0 C0.66 0.33 1.32 0.66 2 1 C-1.99678457 9.59485531 -1.99678457 9.59485531 -6.25 11.3125 C-7.61125 11.6528125 -7.61125 11.6528125 -9 12 C-9.96877057 14.03243548 -9.96877057 14.03243548 -10 16 C-10.99 14.68 -11.98 13.36 -13 12 C-12.39671875 11.72027344 -11.7934375 11.44054688 -11.171875 11.15234375 C-5.36458849 8.2393339 -2.67759766 5.93728176 0 0 Z " fill="#E0AB7B" transform="translate(26,17)"/>
<path d="M0 0 C0.33 0 0.66 0 1 0 C1 4.95 1 9.9 1 15 C-2.70031458 10.06624722 -2.46799924 8.89679045 -2 3 C-1.34 2.01 -0.68 1.02 0 0 Z " fill="#909FB2" transform="translate(40,20)"/>
<path d="M0 0 C0.99 0.33 1.98 0.66 3 1 C4.3125 4.375 4.3125 4.375 5 8 C4.01 9.485 4.01 9.485 3 11 C2.67 10.01 2.34 9.02 2 8 C1.34 7.34 0.68 6.68 0 6 C0.66 6 1.32 6 2 6 C2 5.01 2 4.02 2 3 C1.01 3 0.02 3 -1 3 C-1.33 3.99 -1.66 4.98 -2 6 C-2.33 5.01 -2.66 4.02 -3 3 C-2.01 2.01 -1.02 1.02 0 0 Z " fill="#030404" transform="translate(33,32)"/>
<path d="M0 0 C2.64 0 5.28 0 8 0 C8 0.66 8 1.32 8 2 C7.34 2 6.68 2 6 2 C6 2.66 6 3.32 6 4 C6.66 4.33 7.32 4.66 8 5 C5.69 5 3.38 5 1 5 C1.99 4.67 2.98 4.34 4 4 C4 3.34 4 2.68 4 2 C2.68 2 1.36 2 0 2 C0 1.34 0 0.68 0 0 Z " fill="#D6B990" transform="translate(39,49)"/>
<path d="M0 0 C0.66 0.33 1.32 0.66 2 1 C-2.53669968 4.01679014 -6.68972746 6.53967505 -12 8 C-11.34 6.68 -10.68 5.36 -10 4 C-9.01 4 -8.02 4 -7 4 C-5.20659487 3.10218126 -5.20659487 3.10218126 -3.4375 1.9375 C-2.303125 1.298125 -1.16875 0.65875 0 0 Z " fill="#57677B" transform="translate(19,22)"/>
<path d="M0 0 C0.66 0 1.32 0 2 0 C4.09230769 4.43076923 4.09230769 4.43076923 3.625 7.3125 C3.41875 7.869375 3.2125 8.42625 3 9 C2.01 9 1.02 9 0 9 C0.33 6.69 0.66 4.38 1 2 C0.34 1.67 -0.32 1.34 -1 1 C-0.67 0.67 -0.34 0.34 0 0 Z " fill="#41464C" transform="translate(36,29)"/>
<path d="M0 0 C3.63 0 7.26 0 11 0 C11 0.33 11 0.66 11 1 C8.69 1.33 6.38 1.66 4 2 C3.67 3.32 3.34 4.64 3 6 C2.34 6 1.68 6 1 6 C0.67 4.02 0.34 2.04 0 0 Z " fill="#6B737C" transform="translate(21,58)"/>
<path d="M0 0 C2.97 0 5.94 0 9 0 C9 0.99 9 1.98 9 3 C5.625 3.1875 5.625 3.1875 2 3 C1.34 2.01 0.68 1.02 0 0 Z " fill="#BFC8D3" transform="translate(24,59)"/>
<path d="M0 0 C1.8125 0.9375 1.8125 0.9375 2.8125 3.9375 C2.19375 3.73125 1.575 3.525 0.9375 3.3125 C0.23625 3.18875 -0.465 3.065 -1.1875 2.9375 C-1.8475 3.5975 -2.5075 4.2575 -3.1875 4.9375 C-4.1775 4.6075 -5.1675 4.2775 -6.1875 3.9375 C-2.77921598 -0.07940617 -2.77921598 -0.07940617 0 0 Z " fill="#1B1D20" transform="translate(28.1875,45.0625)"/>
<path d="M0 0 C1.65 0 3.3 0 5 0 C4.67 1.65 4.34 3.3 4 5 C1.525 4.01 1.525 4.01 -1 3 C-0.67 2.01 -0.34 1.02 0 0 Z " fill="#575D66" transform="translate(31,40)"/>
<path d="M0 0 C0 1.65 0 3.3 0 5 C-1.65 5 -3.3 5 -5 5 C-5.33 3.68 -5.66 2.36 -6 1 C-3 0 -3 0 0 0 Z " fill="#2E494D" transform="translate(35,35)"/>
<path d="M0 0 C3.87132028 0.57352893 6.08172796 2.48704352 9 5 C6.75 5.3125 6.75 5.3125 4 5 C1.6875 2.5 1.6875 2.5 0 0 Z " fill="#E3AF7F" transform="translate(17,33)"/>
</svg>
